inDegrees=no
num_controls=7
num_derivatives=13
num_iterations=131
num_multipliers=7
num_parameters=0
num_slacks=7
num_states=26
objective=5.501359
objective_accelerations=0.800938
objective_balance=0.023463
objective_effort=0.188172
objective_height=4.369966
objective_ligament=0.118821
solver_duration=1440.199735
status=Solve_Succeeded
success=true
DataType=double
version=3
OpenSimVersion=4.4-2022-07-23-0e9fedc
endheader
time	/jointset/ground_pelvis/pelvis_tilt/value	/jointset/ground_pelvis/pelvis_tx/value	/jointset/ground_pelvis/pelvis_ty/value	/jointset/hip_l/hip_flexion_l/value	/jointset/hip_l/hip_adduction_l/value	/jointset/hip_l/hip_rotation_l/value	/jointset/back/lumbar_extension/value	/jointset/patellofemoral_l/patellar_flexion_l/value	/jointset/knee_l/knee_flexion_l/value	/jointset/knee_l/knee_adduction_l/value	/jointset/knee_l/knee_rotation_l/value	/jointset/ankle_l/ankle_angle_l/value	/jointset/subtalar_l/subtalar_angle_l/value	/jointset/ground_pelvis/pelvis_tilt/speed	/jointset/ground_pelvis/pelvis_tx/speed	/jointset/ground_pelvis/pelvis_ty/speed	/jointset/hip_l/hip_flexion_l/speed	/jointset/hip_l/hip_adduction_l/speed	/jointset/hip_l/hip_rotation_l/speed	/jointset/back/lumbar_extension/speed	/jointset/patellofemoral_l/patellar_flexion_l/speed	/jointset/knee_l/knee_flexion_l/speed	/jointset/knee_l/knee_adduction_l/speed	/jointset/knee_l/knee_rotation_l/speed	/jointset/ankle_l/ankle_angle_l/speed	/jointset/subtalar_l/subtalar_angle_l/speed	/forceset/tau_hip_flexion_l	/forceset/tau_hip_adduction_l	/forceset/tau_hip_rotation_l	/forceset/tau_knee_flexion_l	/forceset/tau_ankle_angle_l	/forceset/tau_subtalar_angle_l	/forceset/tau_lumbar_extension	lambda_cid13_p0	lambda_cid13_p1	lambda_cid13_p2	lambda_cid13_p3	lambda_cid13_p4	lambda_cid13_p5	lambda_cid14_p0	/jointset/ground_pelvis/pelvis_tilt/accel	/jointset/ground_pelvis/pelvis_tx/accel	/jointset/ground_pelvis/pelvis_ty/accel	/jointset/hip_l/hip_flexion_l/accel	/jointset/hip_l/hip_adduction_l/accel	/jointset/hip_l/hip_rotation_l/accel	/jointset/back/lumbar_extension/accel	/jointset/patellofemoral_l/patellar_flexion_l/accel	/jointset/knee_l/knee_flexion_l/accel	/jointset/knee_l/knee_adduction_l/accel	/jointset/knee_l/knee_rotation_l/accel	/jointset/ankle_l/ankle_angle_l/accel	/jointset/subtalar_l/subtalar_angle_l/accel	gamma_cid13_p0	gamma_cid13_p1	gamma_cid13_p2	gamma_cid13_p3	gamma_cid13_p4	gamma_cid13_p5	gamma_cid14_p0
0.5	-0.2345452474899787	0.02812611014865509	0.7630242575121149	1.035980533611417	-0.3602448017604197	0.0002124886465479982	-0.4027936513903315	0.9907705199641426	0.9907705199640112	-0.01997725300572055	-0.174499669847291	0.320959024435864	0.1710193869218153	-0.7965157085261613	-0.1743344186609543	-0.5641004818778809	2.5164168846803	0.03249648666136487	0.562887055605594	-0.3032333973020965	2.082450748296708	2.082450748296658	0.3027061879468092	0.0001555482966572132	0.5316980378670755	0.2729076236333552	-0.1086831501681349	0.02708523074624163	-0.003163200554598953	-0.2015508989424593	0.001571444335385926	0.01970358781127383	0.1192799810374402	-23.25540162409083	-3.408843247533675	-0.9672522120919621	-1.60706499494585	-438.315685059647	-67.8551953046197	-3.87474228712322	0.3621212893267937	0.4591083045664856	-0.4937307889787908	-1.267552604836214	0.1499808026994328	-0.7507707149904729	1.485810136278862	-1.68305476510302	-1.683054765103018	-0.1704760584682603	-0.000953614759857984	-0.9216322530462104	0.1314150076867535	-5.500455742801643e-07	3.627267229668094e-07	7.344129943674782e-06	4.726077306198188e-07	-1.332856329025547e-06	-4.342304426094297e-07	-9.019983109503358e-07
0.51	-0.2424902353220172	0.02640606024098591	0.7573599952691007	1.061076268356552	-0.3599149913514986	0.005810593246506359	-0.4057526517619352	1.011507213465514	1.011507213465359	-0.01696922997291742	-0.1744978143203194	0.3262283282309441	0.1737504466224008	-0.7923762189350604	-0.16965004113562	-0.5686191593850028	2.502387667983061	0.03346557626405717	0.5566546536692976	-0.2885507512156351	2.064592541965033	2.064592541965031	0.2989194268804762	0.0001838100113008114	0.5220931088439561	0.2732616818084854	-0.1134595094453324	0.02731553326719451	-0.003480934371133523	-0.2045998005042575	0.0003326438838845176	0.02031687644812764	0.1229298475384339	-23.81164282813913	-3.483676676025454	-1.062836110210934	-1.611237247063598	-441.9338518340228	-68.44098507016716	-3.300229786897597	0.4556711266271419	0.4770306548382403	-0.4112758278347362	-1.522031885065236	0.06922352081270383	-0.5721852349420914	1.461880715485109	-1.881336164581658	-1.88133616457458	-0.4795227285936138	0.001381167590314508	-0.9903656280257661	-0.01996328682708344	-5.214635086420836e-07	6.935844978324898e-07	7.185593597049023e-06	5.062820897914276e-07	-1.2558076648699e-06	-3.05100411330011e-08	-8.657893404485157e-07
0.52	-0.250390666591618	0.02473363974423359	0.7516544783317648	1.086021425798139	-0.359575719950197	0.01134383176668791	-0.4085643478985397	1.032056498384063	1.032056498383956	-0.01399842387013241	-0.1744963431556712	0.3313994942555769	0.1764835740028872	-0.7876043960389076	-0.164808536477585	-0.5723514207422267	2.486301423969927	0.03438868513712076	0.5499138396532657	-0.2737725503029267	2.044969031738093	2.044969031738139	0.2952628018990269	7.867584651187763e-05	0.5120704837776063	0.2733211596134954	-0.118235868722488	0.02754583578803764	-0.003798668185726655	-0.2076487020660263	-0.000906156567651675	0.02093016508478874	0.1265797140394763	-24.36153352178016	-3.568968840400938	-1.146072053320447	-1.665759828334786	-445.4690461707334	-69.14559860562568	-2.777548883941594	0.4885879503371608	0.4905337311065717	-0.3364475589991565	-1.67895806801556	0.1407846567738144	-0.8524531309374044	1.504921101528355	-2.036115544155876	-2.03611554415592	-0.1444488414916753	-0.02763279064636592	-1.005171461692382	0.0724989336626629	-4.819354320359686e-07	9.320989784633967e-07	6.806532876829029e-06	5.198032075313564e-07	-1.159477611470745e-06	3.227203292905833e-07	-8.077415477847427e-07
0.53	-0.258240021450437	0.02311018391280098	0.7459155760968582	1.110795730840815	-0.3592271507940366	0.01680848224578228	-0.4112278328852867	1.05240116549195	1.052401165492005	-0.01106410664269426	-0.1744956811378061	0.3364683633651599	0.1792161199430637	-0.7821372240007198	-0.1598804849546101	-0.575295549769839	2.468229789967071	0.03531354779348016	0.5430953230910461	-0.2589163894321697	2.023694693609196	2.023694693609196	0.2914744912219002	8.663530283901455e-05	0.5016166151399947	0.2731139061862399	-0.1237054386228488	0.0295621056617386	-0.003996286294074511	-0.2096250667021584	-0.003518874766738837	0.02029017982407376	0.1306159235712796	-25.49850214017418	-2.922436340862165	-1.442771893108556	-1.041714389505864	-449.1231520281992	-68.22291147375097	-2.305229228421766	0.5951559979297013	0.4943679718011191	-0.2535958802849491	-1.920789563442942	0.06554293330907629	-0.5853839514521688	1.477172222217003	-2.213391931387391	-2.213391931394386	-0.5148223497923354	0.02125409294456019	-1.078482717988358	-0.07941029547588402	-3.675288967436353e-07	2.226533110662562e-07	5.033325941393319e-06	3.169989260999423e-07	-8.934789119540494e-07	2.651292066092673e-08	-6.405158011081298e-07
